<?xml version="1.0" standalone="no"?>
<!DOCTYPE svg PUBLIC "-//W3C//DTD SVG 20010904//EN"
 "http://www.w3.org/TR/2001/REC-SVG-20010904/DTD/svg10.dtd">
<svg version="1.0" xmlns="http://www.w3.org/2000/svg"
 width="500.000000pt" height="500.000000pt" viewBox="0 0 500.000000 500.000000"
 preserveAspectRatio="xMidYMid meet">
<metadata>
Created by potrace 1.14, written by Peter Selinger 2001-2017
</metadata>
<g transform="translate(0.000000,500.000000) scale(0.100000,-0.100000)"
fill="#000000" stroke="none">
<path d="M2170 4630 c19 -13 30 -13 30 0 0 6 -10 10 -22 10 -19 0 -20 -2 -8
-10z"/>
<path d="M2791 4553 c-7 -48 -19 -95 -28 -105 -13 -15 -13 -16 5 -11 25 6 39
40 47 113 4 30 9 63 11 73 3 10 0 17 -8 17 -10 0 -18 -26 -27 -87z"/>
<path d="M2111 4594 c-1 -28 4 -33 49 -52 30 -12 50 -27 50 -36 0 -9 5 -16 10
-16 6 0 10 5 10 11 0 24 -22 48 -60 63 -23 9 -45 26 -50 39 -8 20 -9 19 -9 -9z"/>
<path d="M3127 4539 c-35 -21 -57 -91 -41 -134 8 -19 55 -45 83 -45 12 0 35
12 51 28 42 37 51 96 20 135 -12 15 -29 27 -38 27 -13 0 -12 -3 6 -16 49 -34
16 -164 -42 -164 -54 0 -75 84 -36 148 11 17 19 32 17 32 -1 0 -10 -5 -20 -11z"/>
<path d="M1749 4536 c-9 -9 3 -206 12 -206 7 0 8 12 4 31 -5 22 -3 34 6 40 10
6 11 9 2 9 -9 0 -13 16 -13 48 l1 47 20 -25 c72 -88 93 -108 105 -103 9 3 -9
30 -53 81 -68 78 -76 86 -84 78z"/>
<path d="M2130 4458 c0 -4 14 -8 30 -8 17 0 30 2 30 4 0 2 -13 6 -30 8 -16 3
-30 1 -30 -4z"/>
<path d="M3506 4309 c-26 -44 -44 -84 -40 -90 3 -6 17 6 31 30 13 23 27 41 30
41 10 0 73 -42 73 -48 0 -4 -11 -24 -25 -44 -18 -26 -21 -37 -12 -41 18 -7
113 151 100 164 -6 6 -17 -4 -29 -26 -22 -41 -26 -42 -70 -14 -35 21 -35 23
-2 70 14 21 15 28 5 32 -9 3 -31 -24 -61 -74z"/>
<path d="M1356 4332 c-4 -8 85 -162 95 -162 3 0 14 7 25 15 15 12 15 14 2 9
-13 -4 -27 12 -60 70 -42 73 -52 84 -62 68z"/>
<path d="M1513 4230 c-10 -28 -10 -29 8 -20 21 12 23 19 11 37 -5 8 -11 3 -19
-17z"/>
<path d="M1063 4116 l-28 -24 38 11 c20 7 37 18 37 24 0 20 -16 16 -47 -11z"/>
<path d="M3917 4113 c-2 -4 -8 -50 -12 -102 -4 -52 -9 -101 -12 -110 -4 -9 25
13 63 49 39 36 68 68 66 73 -2 4 -24 -15 -49 -43 -25 -28 -47 -49 -49 -47 -2
2 1 41 6 87 5 48 6 88 1 93 -5 5 -11 5 -14 0z"/>
<path d="M1150 4055 c-10 -12 -10 -15 2 -15 8 0 23 -9 33 -20 17 -19 17 -21 0
-40 -37 -41 -112 -12 -141 54 -12 27 -13 28 -14 8 0 -31 26 -79 49 -92 40 -21
82 -12 118 26 l34 37 -27 28 c-32 33 -37 35 -54 14z"/>
<path d="M3837 4025 c-26 -24 -44 -45 -40 -47 5 -3 28 17 52 44 54 59 51 61
-12 3z"/>
<path d="M2583 3973 c15 -2 37 -2 50 0 12 2 0 4 -28 4 -27 0 -38 -2 -22 -4z"/>
<path d="M2308 3953 c7 -3 16 -2 19 1 4 3 -2 6 -13 5 -11 0 -14 -3 -6 -6z"/>
<path d="M1900 3835 c-14 -8 -20 -14 -15 -14 6 0 21 6 35 14 14 8 21 14 15 14
-5 0 -21 -6 -35 -14z"/>
<path d="M2380 3840 c-20 -6 -21 -8 -5 -8 11 0 29 3 40 8 25 11 -1 11 -35 0z"/>
<path d="M796 3822 c-2 -4 22 -25 55 -46 62 -40 79 -69 59 -105 -17 -32 -58
-26 -119 19 -48 34 -81 45 -66 20 9 -15 127 -90 142 -90 23 0 63 47 63 75 0
14 -11 36 -24 48 -51 48 -105 87 -110 79z"/>
<path d="M1840 3749 c-74 -40 -114 -69 -94 -69 5 0 40 19 76 43 36 23 74 47
84 54 41 25 5 11 -66 -28z"/>
<path d="M2457 3779 c-470 -41 -875 -295 -1102 -691 -22 -37 -40 -66 -42 -64
-2 2 8 23 21 47 34 61 59 122 47 115 -15 -10 -97 -164 -111 -211 -7 -22 -30
-80 -50 -130 -21 -49 -44 -124 -50 -165 -18 -114 -13 -351 9 -503 22 -142 30
-170 85 -291 20 -43 34 -81 32 -84 -10 -9 37 -87 115 -193 43 -58 86 -112 95
-120 9 -7 -9 20 -39 60 -184 244 -277 524 -277 831 0 159 18 283 61 418 123
381 373 668 732 837 349 164 786 165 1148 2 421 -190 741 -616 805 -1072 19
-141 14 -390 -11 -494 -9 -35 -14 -66 -11 -68 5 -5 33 115 46 197 13 85 13
249 -1 347 -66 483 -361 897 -784 1097 -155 74 -318 120 -461 131 -43 3 -99 7
-124 9 -25 2 -85 0 -133 -5z m-1161 -806 c-8 -15 -15 -25 -16 -21 0 12 23 58
27 54 3 -2 -2 -17 -11 -33z"/>
<path d="M4171 3752 c-5 -10 -7 -38 -4 -61 5 -38 3 -46 -18 -62 -17 -13 -20
-19 -8 -19 34 0 48 24 51 85 3 57 4 60 28 60 20 0 26 -6 28 -27 2 -16 8 -28
13 -28 14 0 11 23 -7 48 -19 28 -69 30 -83 4z"/>
<path d="M1890 3730 c-19 -11 -30 -19 -25 -19 6 0 26 8 45 19 19 11 31 19 25
19 -5 0 -26 -8 -45 -19z"/>
<path d="M1894 3684 c-18 -14 -18 -14 6 -3 31 14 36 19 24 19 -6 0 -19 -7 -30
-16z"/>
<path d="M4075 3690 c-7 -12 8 -42 32 -61 16 -12 16 -11 -1 8 -11 13 -16 31
-13 43 5 20 -7 28 -18 10z"/>
<path d="M1712 3625 c-61 -35 -86 -55 -185 -153 -85 -83 -117 -122 -100 -122
4 0 35 25 68 56 33 30 104 93 157 140 86 75 116 104 106 104 -2 0 -22 -11 -46
-25z"/>
<path d="M1515 3518 c-48 -49 -48 -50 -10 -21 47 37 82 73 69 73 -6 0 -32 -23
-59 -52z"/>
<path d="M573 3420 c-12 -5 -26 -18 -32 -29 -17 -31 -13 -37 9 -13 14 15 33
22 58 22 39 0 102 -32 102 -52 0 -6 3 -8 6 -5 12 12 -27 59 -61 73 -39 16 -51
16 -82 4z"/>
<path d="M1564 3398 l-29 -33 33 29 c30 28 37 36 29 36 -2 0 -16 -15 -33 -32z"/>
<path d="M4343 3419 c-59 -17 -90 -82 -60 -124 13 -16 14 -15 9 14 -6 44 36
89 92 98 32 5 36 8 21 14 -24 9 -23 9 -62 -2z"/>
<path d="M4443 3396 c10 -14 9 -54 -4 -78 -13 -25 -91 -60 -116 -52 -15 5 -15
4 -3 -5 34 -25 102 -6 138 37 17 23 15 67 -5 89 -10 10 -15 14 -10 9z"/>
<path d="M1312 3291 c-112 -150 -209 -367 -258 -577 -26 -108 -28 -136 -28
-309 0 -185 17 -334 45 -397 9 -22 9 -22 5 2 -32 166 -39 232 -40 370 -1 168
9 241 55 419 34 131 140 353 219 462 27 37 53 76 59 88 23 43 -1 19 -57 -58z"/>
<path d="M530 3319 c0 -6 13 -24 29 -40 24 -23 38 -29 75 -29 36 0 48 5 65 26
12 15 21 34 20 43 0 11 -3 8 -9 -7 -20 -49 -104 -54 -154 -7 -14 13 -26 19
-26 14z"/>
<path d="M4567 3013 c-5 -7 -18 -14 -30 -14 -18 -1 -18 -2 -4 -6 15 -4 6 -18
-48 -79 -52 -58 -62 -74 -47 -74 11 0 26 9 33 19 8 11 36 44 62 75 29 33 47
62 45 73 -2 13 -6 15 -11 6z"/>
<path d="M454 2996 c-30 -13 -64 -69 -50 -83 3 -3 6 1 6 10 0 8 12 25 28 37
32 26 91 23 124 -7 15 -13 20 -14 16 -4 -5 18 -45 47 -73 55 -11 3 -34 -1 -51
-8z"/>
<path d="M4478 2983 c7 -3 16 -2 19 1 4 3 -2 6 -13 5 -11 0 -14 -3 -6 -6z"/>
<path d="M4390 2970 c0 -6 11 -8 28 -4 39 10 40 14 4 14 -18 0 -32 -5 -32 -10z"/>
<path d="M582 2905 c0 -16 2 -22 5 -12 2 9 2 23 0 30 -3 6 -5 -1 -5 -18z"/>
<path d="M390 2886 c0 -9 10 -18 23 -20 12 -3 49 -10 82 -17 33 -6 65 -14 72
-16 8 -3 13 3 13 17 0 11 -4 19 -9 16 -9 -6 -156 20 -172 30 -5 3 -9 -2 -9
-10z"/>
<path d="M4555 2870 c-28 -7 -27 -8 13 -9 23 0 42 4 42 9 0 11 -11 11 -55 0z"/>
<path d="M1894 2849 c14 -21 16 -64 16 -369 0 -297 -2 -349 -16 -368 l-15 -22
128 0 c70 0 153 4 183 9 146 24 253 99 312 218 28 58 33 79 36 162 6 143 -32
231 -131 304 -83 62 -155 79 -356 85 l-174 5 17 -24z m355 -61 c117 -59 175
-169 174 -324 -1 -99 -22 -175 -63 -231 -76 -103 -299 -141 -331 -56 -11 29
-12 636 -1 647 4 5 41 6 82 3 57 -5 89 -13 139 -39z"/>
<path d="M2974 2848 c14 -19 16 -69 16 -343 0 -183 -5 -339 -11 -365 -12 -52
-49 -104 -93 -131 -29 -18 -30 -19 -7 -19 46 0 103 24 146 62 71 63 75 86 75
462 0 283 2 321 17 338 15 17 13 18 -71 18 l-87 0 15 -22z"/>
<path d="M4488 2853 c6 -2 18 -2 25 0 6 3 1 5 -13 5 -14 0 -19 -2 -12 -5z"/>
<path d="M1031 2804 c0 -11 3 -14 6 -6 3 7 2 16 -1 19 -3 4 -6 -2 -5 -13z"/>
<path d="M3981 2794 c0 -11 3 -14 6 -6 3 7 2 16 -1 19 -3 4 -6 -2 -5 -13z"/>
<path d="M1021 2764 c0 -11 3 -14 6 -6 3 7 2 16 -1 19 -3 4 -6 -2 -5 -13z"/>
<path d="M3976 2700 c10 -68 34 -183 39 -189 10 -10 4 71 -10 141 -18 83 -40
120 -29 48z"/>
<path d="M4007 2372 c-8 -11 -27 -153 -22 -160 1 -1 10 18 19 42 17 44 19 144
3 118z"/>
<path d="M1081 1970 c0 -8 4 -24 9 -35 5 -13 9 -14 9 -5 0 8 -4 24 -9 35 -5
13 -9 14 -9 5z"/>
<path d="M1106 1890 c4 -14 13 -38 20 -55 11 -24 13 -25 8 -5 -4 14 -13 39
-20 55 -11 24 -13 25 -8 5z"/>
<path d="M555 1880 c110 -16 233 -85 318 -180 26 -29 47 -46 47 -39 0 27 -127
135 -210 178 -69 36 -94 44 -149 47 l-66 3 60 -9z"/>
<path d="M4379 1880 c-66 -19 -178 -89 -236 -146 -35 -34 -63 -67 -63 -74 0
-7 21 11 47 40 86 95 209 165 318 180 l60 7 -50 1 c-27 0 -62 -3 -76 -8z"/>
<path d="M3821 1709 c-7 -12 -10 -23 -8 -26 3 -3 11 5 17 17 15 28 8 35 -9 9z"/>
<path d="M4801 1639 c-13 -10 -31 -19 -40 -19 -10 -1 -7 -6 11 -15 15 -8 30
-25 34 -37 l7 -23 8 23 c5 14 20 25 40 29 l31 6 -30 13 c-17 7 -32 19 -34 27
-2 13 -7 12 -27 -4z m23 -42 c-11 -6 -19 -5 -25 4 -11 18 11 31 29 17 11 -10
10 -13 -4 -21z"/>
<path d="M162 1630 c-7 -11 -22 -20 -35 -21 -17 0 -14 -3 13 -13 19 -7 36 -20
38 -28 2 -12 11 -8 35 16 l32 31 -35 18 c-19 9 -34 17 -35 17 0 0 -6 -9 -13
-20z m48 -20 c0 -14 -17 -21 -34 -14 -12 5 -14 10 -6 20 12 13 40 9 40 -6z"/>
<path d="M332 1628 c2 -12 11 -24 21 -26 14 -3 18 1 15 20 -2 12 -11 24 -21
26 -14 3 -18 -1 -15 -20z m28 -9 c0 -6 -4 -7 -10 -4 -5 3 -10 11 -10 16 0 6 5
7 10 4 6 -3 10 -11 10 -16z"/>
<path d="M3739 1613 c-25 -41 -104 -137 -178 -218 -25 -28 -5 -10 44 40 84 84
173 200 162 211 -3 3 -15 -12 -28 -33z"/>
<path d="M4637 1643 c-4 -3 -7 -15 -7 -25 0 -28 34 -19 38 10 3 21 -16 31 -31
15z m15 -25 c-7 -7 -12 -8 -12 -2 0 14 12 26 19 19 2 -3 -1 -11 -7 -17z"/>
<path d="M492 1610 c148 -21 256 -92 291 -191 8 -24 16 -36 16 -26 2 31 -47
114 -86 146 -52 43 -135 72 -218 76 l-70 4 67 -9z"/>
<path d="M4399 1597 c-36 -12 -84 -37 -106 -55 -43 -33 -99 -130 -90 -154 2
-7 10 7 18 32 29 97 139 170 287 189 l67 8 -55 1 c-33 1 -81 -7 -121 -21z"/>
<path d="M957 1585 c5 -16 8 -64 8 -105 -1 -60 -7 -93 -34 -165 -42 -112 -45
-185 -12 -239 23 -36 70 -78 104 -89 9 -4 17 -13 17 -21 0 -19 148 -111 308
-192 482 -244 1063 -330 1617 -238 216 36 523 136 720 235 184 93 275 151 275
177 0 12 -2 22 -5 22 -3 0 -52 -28 -108 -62 -324 -196 -731 -327 -1112 -359
-373 -31 -735 16 -1091 142 -141 51 -389 171 -502 245 -77 50 -97 60 -124 63
-15 2 -80 65 -94 92 -23 45 -17 115 21 224 39 112 46 215 19 270 l-14 30 7
-30z"/>
<path d="M4031 1569 c-22 -62 -13 -145 26 -258 20 -58 36 -124 36 -147 0 -55
-36 -115 -89 -149 -24 -16 -42 -30 -40 -33 10 -9 79 43 106 80 48 65 48 105 1
245 -42 125 -50 187 -31 252 12 45 6 52 -9 10z"/>
<path d="M559 1459 c96 -19 147 -90 138 -194 -4 -38 -2 -53 3 -40 15 34 11
115 -7 152 -22 47 -95 93 -142 92 -36 -1 -36 -1 8 -10z"/>
<path d="M4372 1444 c-69 -41 -99 -131 -72 -214 6 -16 7 -4 3 35 -9 104 42
175 138 194 43 9 43 9 9 10 -21 0 -52 -9 -78 -25z"/>
<path d="M1560 1425 c19 -19 36 -35 39 -35 3 0 -10 16 -29 35 -19 19 -36 35
-39 35 -3 0 10 -16 29 -35z"/>
<path d="M3639 1443 c-13 -16 -12 -17 4 -4 16 13 21 21 13 21 -2 0 -10 -8 -17
-17z"/>
<path d="M3690 1415 c-24 -25 -42 -45 -39 -45 3 0 25 20 49 45 24 25 42 45 39
45 -3 0 -25 -20 -49 -45z"/>
<path d="M3630 1301 c-19 -16 -32 -32 -29 -35 3 -3 21 10 39 29 41 42 37 45
-10 6z"/>
<path d="M780 1244 c-19 -51 -19 -54 -14 -54 8 0 36 72 30 77 -3 3 -10 -7 -16
-23z"/>
<path d="M4200 1265 c0 -14 31 -77 35 -73 6 5 -22 78 -30 78 -3 0 -5 -2 -5 -5z"/>
<path d="M761 1131 c-2 -77 47 -130 168 -179 29 -12 63 -22 75 -22 11 1 -14
14 -56 30 -125 46 -167 86 -179 170 l-6 45 -2 -44z"/>
<path d="M4237 1130 c-14 -81 -76 -136 -197 -176 -30 -10 -48 -20 -39 -22 23
-4 135 42 177 74 39 31 75 102 70 142 -3 22 -5 18 -11 -18z"/>
<path d="M672 1110 c-3 -94 65 -178 150 -186 l43 -4 -40 13 c-94 32 -134 77
-145 165 -7 56 -7 56 -8 12z"/>
<path d="M4322 1112 c-1 -23 -8 -57 -16 -76 -18 -43 -80 -93 -131 -106 l-40
-10 42 4 c93 9 158 87 150 183 l-3 48 -2 -43z"/>
</g>
</svg>
